<svg height="60" viewBox="0 0 15.875 15.875" width="60" xmlns="http://www.w3.org/2000/svg">
  <path d="m7.9375 3.175a.7937502.79374995 0 0 0 -.7937502.79375v7.9375a.79375023.79374997 0 0 0 1.587498 0v-7.9375a.7937502.79374995 0 0 0 -.7937478-.79375zm-3.9687512 4.7625a.7937502.79374995 0 0 0 -.7937503.79375v3.175a.79375068.79375043 0 0 0 1.5875005 0v-3.175a.7937502.79374995 0 0 0 -.7937502-.79375zm7.9375002-1.5875a.7937502.79374995 0 0 0 -.79375.79375v4.7625a.79375068.79375043 0 0 0 1.5875 0v-4.7625a.7937502.79374995 0 0 0 -.79375-.79375zm1.5875-6.35h-11.1125007a2.3812506 2.3812498 0 0 0 -2.3812483 2.38125v11.1125a2.3812506 2.3812498 0 0 0 2.3812483 2.38125h11.1125007a2.3812506 2.3812498 0 0 0 2.381251-2.38125v-11.1125a2.3812506 2.3812498 0 0 0 -2.381251-2.38125zm.793751 13.49375a.7937502.79374995 0 0 1 -.793751.79375h-11.1125007a.7937502.79374995 0 0 1 -.7937503-.79375v-11.1125a.7937502.79374995 0 0 1 .7937503-.79375h11.1125007a.7937502.79374995 0 0 1 .793751.79375z" fill="#6563ff" stroke-width=".264583"/>
</svg>
